<svg xmlns="http://www.w3.org/2000/svg" viewBox="0 0 87.5 121.26" width="24" height="24" fill="#22c55e">
  <g transform="translate(-53.85 -72.62)"><path d="M140.15 80.88c-3.78-9.98-29.01-15.44-38.8 10.78 30.9-4-14.24 39.34-21.73 64.88 1.22 10.36 1.58 21.85 4.87 29.55l1.87-3.05c.64 4.43 1.64 8.32 3.55 10.84l4.67-37.91c13.54-8.2 30.28-22.21 27.5-39.81 2.84-5.28 6.52-9.45 5.7-19.45-.23-2.42 2.14-6.09 3.57-9.3 0 0-2.76-5.06 8.8-6.53"/><path d="M139.97 82.26c2.6 4.36 1.94 12.14-5.57 14.72 2.21-6.04-.12-6.46-2.28-11.07 2.05-3.12 4.86-3.7 7.85-3.65"/><path d="M131.98 87.82c1.4 1.68 2.5 3.53 2.78 5.84a8.7 8.7 0 0 1-6.1 1.35 23 23 0 0 0 3.32-7.19"/><circle cx="127.69" cy="79.08" r="3.23" fill="white"/><path d="M99.38 93.15C84.64 95.65 76.6 134 75.55 150.62c-1.58 7.6-5.04 16.22-4.07 22.4 2.44.64 4.58-.86 6.7-2.4l-1.07-15.45c8.98-21.52 49.21-67.3 22.27-62.02"/><ellipse cx="112.66" cy="142.52" rx="3.11" ry="3.95"/><ellipse cx="106.91" cy="145.99" rx="3.11" ry="3.95"/><path d="M134.6 129.63c-5.54 2.46-12.32 6.24-17.82 8.78 1.17.95 1 2.3.6 3.88 6.04-2.62 12.77-6.65 18.9-9.19zm-64.53 33.76c-4.21 2.56-12.1 12.58-16.22 15.34l2.4.86c5.08-3.74 7.44-7.8 12.76-10.03z"/></g>
</svg>
