<svg xmlns="http://www.w3.org/2000/svg" viewBox="0 0 24 24" width="24" height="24">
  <!-- Parrot body -->
  <ellipse cx="12" cy="12" rx="6" ry="7" fill="#22c55e"/>
  <!-- Wing -->
  <ellipse cx="14" cy="13" rx="3" ry="4" fill="#16a34a"/>
  <!-- Wing highlight -->
  <ellipse cx="15" cy="14" rx="1.5" ry="2.5" fill="#eab308"/>
  <!-- Head -->
  <circle cx="9" cy="7" r="4" fill="#22c55e"/>
  <!-- Beak -->
  <path d="M5 7 Q4 8 5 9 Q6 8.5 6 7.5 Q6 7 5 7" fill="#f97316"/>
  <!-- Eye -->
  <circle cx="8" cy="6.5" r="0.8" fill="#1e1e1e"/>
  <!-- Cheek patch -->
  <ellipse cx="6.5" cy="8.5" rx="1" ry="0.8" fill="#f97316"/>
  <!-- Tail -->
  <path d="M14 18 Q16 20 15 22 Q14 21 13 22 Q12 20 14 18" fill="#16a34a"/>
  <!-- Perch -->
  <rect x="2" y="17" width="20" height="1.5" rx="0.75" fill="#a16207"/>
  <!-- Feet -->
  <path d="M10 17 L9 18.5 M10 17 L10.5 18.5 M11 17 L11 18.5" stroke="#f97316" stroke-width="0.8" fill="none"/>
  <path d="M14 17 L13.5 18.5 M14 17 L14.5 18.5 M15 17 L15 18.5" stroke="#f97316" stroke-width="0.8" fill="none"/>
</svg>
